# xmcd
#
# Track frame offsets:
#	150
#	15274
#	28981
#	45582
#	66279
#	79043
#	90278
#	105214
#	119451
#	143247
#	160226
#	175481
#	194155
#	206012
#
# Disc length: 2893 seconds
#
# Revision: 0
# Processed by: cddbd v1.5.2PL0 Copyright (c) Steve Scherf et al.
# Submitted via: EZCDAudioConverter 2.1.5.1
#
DISCID=b90b4b0e
DTITLE=Petunia and the Vipers - Dead Bird on the Highway
DYEAR=1900
DGENRE=
TTITLE0=Blue Yodel Blues
TTITLE1=Asaw Fofor
TTITLE2=Oh What a Wonderful Time
TTITLE3=Death Himself
TTITLE4=My Heart Cries Out For You
TTITLE5=Bloom Bloom Bloom
TTITLE6=Lou Lou
TTITLE7=Chained
TTITLE8=Deep Blue Sea
TTITLE9=Gonna Put on my Suit
TTITLE10=Way Down Here
TTITLE11=Put  Yourself on the Market
TTITLE12=Try to Enjoy Yourself-Come On Baby
TTITLE13=I'm Shakin'
EXTD=
EXTT0=
EXTT1=
EXTT2=
EXTT3=
EXTT4=
EXTT5=
EXTT6=
EXTT7=
EXTT8=
EXTT9=
EXTT10=
EXTT11=
EXTT12=
EXTT13=
PLAYORDER=
